<?xml version="1.0" encoding="UTF-8"?>
<svg width="31px" height="25px" viewBox="0 0 31 25" version="1.1" xmlns="http://www.w3.org/2000/svg" xmlns:xlink="http://www.w3.org/1999/xlink">
    <title>path22</title>
    <g id="Projet-SEO---Mockups" stroke="none" stroke-width="1" fill="none" fill-rule="evenodd">
        <g id="Components/Section/Footer" transform="translate(-1065.000000, -65.000000)" fill="#171D8F">
            <g id="Socials" transform="translate(945.000000, 65.000000)">
                <path d="M150.764487,2.95896169 C149.633161,3.46102883 148.416534,3.80036177 147.140045,3.95323513 C148.442864,3.17179358 149.443212,1.93500275 149.914467,0.46158196 C148.695151,1.18511832 147.344846,1.70993566 145.906543,1.99282315 C144.755865,0.766523091 143.11547,0 141.300215,0 C137.814407,0 134.989124,2.82551322 134.989124,6.3110912 C134.989124,6.8059323 135.044425,7.28776291 135.152464,7.74938727 C129.906986,7.48653038 125.256544,4.97316615 122.143649,1.15518448 C121.600352,2.08689487 121.289154,3.17089108 121.289154,4.32772307 C121.289154,6.51764195 122.402908,8.44907105 124.096884,9.58129333 C123.062343,9.54894879 122.089027,9.26492258 121.238069,8.79186861 C121.236857,8.81845897 121.236857,8.8446859 121.236857,8.87108243 C121.236857,11.9295187 123.412639,14.4797884 126.299589,15.0599731 C125.770453,15.2042333 125.213025,15.2805216 124.637364,15.2805216 C124.230272,15.2805216 123.835553,15.2419989 123.449527,15.1679941 C124.253203,17.6752832 126.583585,19.5002176 129.345851,19.5513026 C127.184061,21.2443573 124.463152,22.2528102 121.505989,22.2528102 C120.996908,22.2528102 120.494145,22.2228279 120,22.1648137 C122.794229,23.9554956 126.111246,25 129.675819,25 C141.28437,25 147.631694,15.3833639 147.631694,7.04255014 C147.631694,6.769045 147.625395,6.49740541 147.613947,6.22674101 C148.846547,5.33619419 149.916436,4.22491712 150.763081,2.95901015" id="path22"></path>
            </g>
        </g>
    </g>
</svg>