<?xml version="1.0" encoding="UTF-8"?>
<svg width="25px" height="25px" viewBox="0 0 25 25" version="1.1" xmlns="http://www.w3.org/2000/svg" xmlns:xlink="http://www.w3.org/1999/xlink">
    <title>Blue_1_</title>
    <g id="Projet-SEO---Mockups" stroke="none" stroke-width="1" fill="none" fill-rule="evenodd">
        <g id="Components/Section/Footer" transform="translate(-945.000000, -66.000000)" fill="#171D8F">
            <g id="Socials" transform="translate(945.000000, 65.000000)">
                <path d="M0,2.37928964 L0,24.6207104 C0,25.382681 0.617023685,26 1.37928964,26 L13.3533402,26 L13.3533402,16.3207261 L10.0945788,16.3207261 L10.0945788,12.5466274 L13.3533402,12.5466274 L13.3533402,9.76379181 C13.3533402,6.53478963 15.3260568,4.77713079 18.2066213,4.77713079 C19.5864179,4.77713079 20.771239,4.87969325 21.1167677,4.92567089 L21.1167677,8.29962493 L19.1190713,8.29962493 C17.5526324,8.29962493 17.2486956,9.04428442 17.2486956,10.1366581 L17.2486956,12.5466274 L20.9864198,12.5466274 L20.4983609,16.3207261 L17.2486956,16.3207261 L17.2486956,26 L23.6207104,26 C24.3825875,26 25,25.3827794 25,24.6207104 L25,2.37928964 C25,1.61712213 24.382681,1 23.6207104,1 L1.37928964,1 C0.617122128,1 0,1.61712213 0,2.37928964 Z" id="Blue_1_"></path>
            </g>
        </g>
    </g>
</svg>