<?xml version="1.0" encoding="UTF-8"?>
<svg width="26px" height="25px" viewBox="0 0 26 25" version="1.1" xmlns="http://www.w3.org/2000/svg" xmlns:xlink="http://www.w3.org/1999/xlink">
    <title>rect3687</title>
    <g id="Projet-SEO---Mockups" stroke="none" stroke-width="1" fill="none" fill-rule="evenodd">
        <g id="Components/Section/Footer" transform="translate(-985.000000, -66.000000)" fill="#171D8F">
            <g id="Socials" transform="translate(945.000000, 65.000000)">
                <path d="M47.2536608,1 C43.2532143,1 40,4.25501313 40,8.25546443 L40,18.7463441 C40,22.7467857 43.2532143,26 47.2536608,26 L57.807373,26 C61.8078195,26 65.0610338,22.7467857 65.0610338,18.7463441 L65.0610338,8.25546443 C65.0610338,4.25501313 61.8078195,1 57.807373,1 L47.2536608,1 L47.2536608,1 Z M47.2536608,3.14918577 L57.807373,3.14918577 C60.6545489,3.14918577 62.9136662,5.40830796 62.9136662,8.25546443 L62.9136662,18.7463441 C62.9136662,21.5935103 60.6545489,23.8508336 57.807373,23.8508336 L47.2536608,23.8508336 C44.4064849,23.8508336 42.1491664,21.5935103 42.1491664,18.7463441 L42.1491664,8.25546443 C42.1491664,5.40830796 44.4064849,3.14918577 47.2536608,3.14918577 Z M59.2563092,5.29834245 C58.426123,5.29834245 57.7535103,5.97095514 57.7535103,6.80113173 C57.7535103,7.63134227 58.426123,8.30394526 59.2563092,8.30394526 C60.0864955,8.30394526 60.7591131,7.63134227 60.7591131,6.80113173 C60.7591131,5.97095514 60.0864955,5.29834245 59.2563092,5.29834245 Z M52.5305169,7.06326469 C48.9881195,7.06326469 46.0937913,9.95761227 46.0937913,13.5000048 C46.0937913,17.0424023 48.9881195,19.9367305 52.5305169,19.9367305 C56.0729143,19.9367305 58.9690365,17.0424023 58.9690365,13.5000048 C58.9690365,9.95761227 56.0729143,7.06326469 52.5305169,7.06326469 Z M52.5305169,9.21245046 C54.9116145,9.21245046 56.8198701,11.1189121 56.8198701,13.5000048 C56.8198701,15.8811025 54.9116145,17.7875641 52.5305169,17.7875641 C50.1494193,17.7875641 48.2429576,15.8811025 48.2429576,13.5000048 C48.2429576,11.1189121 50.1494193,9.21245046 52.5305169,9.21245046 Z" id="rect3687"></path>
            </g>
        </g>
    </g>
</svg>